G04 #@! TF.GenerationSoftware,KiCad,Pcbnew,5.0.2-bee76a0~70~ubuntu18.04.1*
G04 #@! TF.CreationDate,2019-08-13T19:40:09+01:00*
G04 #@! TF.ProjectId,SOICbite_USB,534f4943-6269-4746-955f-5553422e6b69,rev?*
G04 #@! TF.SameCoordinates,Original*
G04 #@! TF.FileFunction,Soldermask,Bot*
G04 #@! TF.FilePolarity,Negative*
%FSLAX46Y46*%
G04 Gerber Fmt 4.6, Leading zero omitted, Abs format (unit mm)*
G04 Created by KiCad (PCBNEW 5.0.2-bee76a0~70~ubuntu18.04.1) date Tue 13 Aug 2019 19:40:09 BST*
%MOMM*%
%LPD*%
G01*
G04 APERTURE LIST*
%ADD10C,0.100000*%
G04 APERTURE END LIST*
D10*
G36*
X108001000Y-102601000D02*
X106199000Y-102601000D01*
X106199000Y-100799000D01*
X108001000Y-100799000D01*
X108001000Y-102601000D01*
X108001000Y-102601000D01*
G37*
G36*
X135734295Y-98778634D02*
X135906695Y-98830932D01*
X135906697Y-98830933D01*
X136065584Y-98915860D01*
X136204850Y-99030152D01*
X136319142Y-99169418D01*
X136325700Y-99181688D01*
X136404070Y-99328307D01*
X136456368Y-99500707D01*
X136474026Y-99680001D01*
X136456368Y-99859295D01*
X136404070Y-100031695D01*
X136404069Y-100031697D01*
X136319142Y-100190584D01*
X136204850Y-100329850D01*
X136065584Y-100444142D01*
X135906697Y-100529069D01*
X135906695Y-100529070D01*
X135734295Y-100581368D01*
X135599932Y-100594601D01*
X135510070Y-100594601D01*
X135375707Y-100581368D01*
X135203307Y-100529070D01*
X135203305Y-100529069D01*
X135044418Y-100444142D01*
X134905152Y-100329850D01*
X134790860Y-100190584D01*
X134705933Y-100031697D01*
X134705932Y-100031695D01*
X134653634Y-99859295D01*
X134635976Y-99680001D01*
X134653634Y-99500707D01*
X134705932Y-99328307D01*
X134784302Y-99181688D01*
X134790860Y-99169418D01*
X134905152Y-99030152D01*
X135044418Y-98915860D01*
X135203305Y-98830933D01*
X135203307Y-98830932D01*
X135375707Y-98778634D01*
X135510070Y-98765401D01*
X135599932Y-98765401D01*
X135734295Y-98778634D01*
X135734295Y-98778634D01*
G37*
G36*
X133194295Y-98778634D02*
X133366695Y-98830932D01*
X133366697Y-98830933D01*
X133525584Y-98915860D01*
X133664850Y-99030152D01*
X133779142Y-99169418D01*
X133785700Y-99181688D01*
X133864070Y-99328307D01*
X133916368Y-99500707D01*
X133934026Y-99680001D01*
X133916368Y-99859295D01*
X133864070Y-100031695D01*
X133864069Y-100031697D01*
X133779142Y-100190584D01*
X133664850Y-100329850D01*
X133525584Y-100444142D01*
X133366697Y-100529069D01*
X133366695Y-100529070D01*
X133194295Y-100581368D01*
X133059932Y-100594601D01*
X132970070Y-100594601D01*
X132835707Y-100581368D01*
X132663307Y-100529070D01*
X132663305Y-100529069D01*
X132504418Y-100444142D01*
X132365152Y-100329850D01*
X132250860Y-100190584D01*
X132165933Y-100031697D01*
X132165932Y-100031695D01*
X132113634Y-99859295D01*
X132095976Y-99680001D01*
X132113634Y-99500707D01*
X132165932Y-99328307D01*
X132244302Y-99181688D01*
X132250860Y-99169418D01*
X132365152Y-99030152D01*
X132504418Y-98915860D01*
X132663305Y-98830933D01*
X132663307Y-98830932D01*
X132835707Y-98778634D01*
X132970070Y-98765401D01*
X133059932Y-98765401D01*
X133194295Y-98778634D01*
X133194295Y-98778634D01*
G37*
G36*
X107210443Y-98265519D02*
X107276627Y-98272037D01*
X107389853Y-98306384D01*
X107446467Y-98323557D01*
X107585087Y-98397652D01*
X107602991Y-98407222D01*
X107638729Y-98436552D01*
X107740186Y-98519814D01*
X107823448Y-98621271D01*
X107852778Y-98657009D01*
X107852779Y-98657011D01*
X107936443Y-98813533D01*
X107936443Y-98813534D01*
X107987963Y-98983373D01*
X108005359Y-99160000D01*
X107987963Y-99336627D01*
X107978351Y-99368312D01*
X107936443Y-99506467D01*
X107918130Y-99540727D01*
X107852778Y-99662991D01*
X107844813Y-99672696D01*
X107740186Y-99800186D01*
X107668160Y-99859295D01*
X107602991Y-99912778D01*
X107602989Y-99912779D01*
X107446467Y-99996443D01*
X107389853Y-100013616D01*
X107276627Y-100047963D01*
X107210443Y-100054481D01*
X107144260Y-100061000D01*
X107055740Y-100061000D01*
X106989558Y-100054482D01*
X106923373Y-100047963D01*
X106810147Y-100013616D01*
X106753533Y-99996443D01*
X106597011Y-99912779D01*
X106597009Y-99912778D01*
X106531840Y-99859295D01*
X106459814Y-99800186D01*
X106355187Y-99672696D01*
X106347222Y-99662991D01*
X106281870Y-99540727D01*
X106263557Y-99506467D01*
X106221649Y-99368312D01*
X106212037Y-99336627D01*
X106194641Y-99160000D01*
X106212037Y-98983373D01*
X106263557Y-98813534D01*
X106263557Y-98813533D01*
X106347221Y-98657011D01*
X106347222Y-98657009D01*
X106376552Y-98621271D01*
X106459814Y-98519814D01*
X106561271Y-98436552D01*
X106597009Y-98407222D01*
X106614913Y-98397652D01*
X106753533Y-98323557D01*
X106810147Y-98306384D01*
X106923373Y-98272037D01*
X106989557Y-98265519D01*
X107055740Y-98259000D01*
X107144260Y-98259000D01*
X107210443Y-98265519D01*
X107210443Y-98265519D01*
G37*
G36*
X119023312Y-98805887D02*
X119113039Y-98833106D01*
X119195731Y-98877306D01*
X119268211Y-98936789D01*
X119327694Y-99009269D01*
X119371894Y-99091961D01*
X119399113Y-99181688D01*
X119408303Y-99275000D01*
X119399113Y-99368312D01*
X119371894Y-99458039D01*
X119327694Y-99540731D01*
X119268211Y-99613211D01*
X119195731Y-99672694D01*
X119113039Y-99716894D01*
X119023312Y-99744113D01*
X118953384Y-99751000D01*
X117906616Y-99751000D01*
X117836688Y-99744113D01*
X117746961Y-99716894D01*
X117664269Y-99672694D01*
X117591789Y-99613211D01*
X117532306Y-99540731D01*
X117488106Y-99458039D01*
X117460887Y-99368312D01*
X117451697Y-99275000D01*
X117460887Y-99181688D01*
X117488106Y-99091961D01*
X117532306Y-99009269D01*
X117591789Y-98936789D01*
X117664269Y-98877306D01*
X117746961Y-98833106D01*
X117836688Y-98805887D01*
X117906616Y-98799000D01*
X118953384Y-98799000D01*
X119023312Y-98805887D01*
X119023312Y-98805887D01*
G37*
G36*
X133194295Y-96238634D02*
X133366695Y-96290932D01*
X133366697Y-96290933D01*
X133525584Y-96375860D01*
X133664850Y-96490152D01*
X133779142Y-96629418D01*
X133816736Y-96699752D01*
X133864070Y-96788307D01*
X133916368Y-96960707D01*
X133934026Y-97140001D01*
X133916368Y-97319295D01*
X133864070Y-97491695D01*
X133864069Y-97491697D01*
X133779142Y-97650584D01*
X133664850Y-97789850D01*
X133525584Y-97904142D01*
X133366697Y-97989069D01*
X133366695Y-97989070D01*
X133194295Y-98041368D01*
X133059932Y-98054601D01*
X132970070Y-98054601D01*
X132835707Y-98041368D01*
X132663307Y-97989070D01*
X132663305Y-97989069D01*
X132504418Y-97904142D01*
X132365152Y-97789850D01*
X132250860Y-97650584D01*
X132165933Y-97491697D01*
X132165932Y-97491695D01*
X132113634Y-97319295D01*
X132095976Y-97140001D01*
X132113634Y-96960707D01*
X132165932Y-96788307D01*
X132213266Y-96699752D01*
X132250860Y-96629418D01*
X132365152Y-96490152D01*
X132504418Y-96375860D01*
X132663305Y-96290933D01*
X132663307Y-96290932D01*
X132835707Y-96238634D01*
X132970070Y-96225401D01*
X133059932Y-96225401D01*
X133194295Y-96238634D01*
X133194295Y-96238634D01*
G37*
G36*
X135734295Y-96238634D02*
X135906695Y-96290932D01*
X135906697Y-96290933D01*
X136065584Y-96375860D01*
X136204850Y-96490152D01*
X136319142Y-96629418D01*
X136356736Y-96699752D01*
X136404070Y-96788307D01*
X136456368Y-96960707D01*
X136474026Y-97140001D01*
X136456368Y-97319295D01*
X136404070Y-97491695D01*
X136404069Y-97491697D01*
X136319142Y-97650584D01*
X136204850Y-97789850D01*
X136065584Y-97904142D01*
X135906697Y-97989069D01*
X135906695Y-97989070D01*
X135734295Y-98041368D01*
X135599932Y-98054601D01*
X135510070Y-98054601D01*
X135375707Y-98041368D01*
X135203307Y-97989070D01*
X135203305Y-97989069D01*
X135044418Y-97904142D01*
X134905152Y-97789850D01*
X134790860Y-97650584D01*
X134705933Y-97491697D01*
X134705932Y-97491695D01*
X134653634Y-97319295D01*
X134635976Y-97140001D01*
X134653634Y-96960707D01*
X134705932Y-96788307D01*
X134753266Y-96699752D01*
X134790860Y-96629418D01*
X134905152Y-96490152D01*
X135044418Y-96375860D01*
X135203305Y-96290933D01*
X135203307Y-96290932D01*
X135375707Y-96238634D01*
X135510070Y-96225401D01*
X135599932Y-96225401D01*
X135734295Y-96238634D01*
X135734295Y-96238634D01*
G37*
G36*
X107210442Y-95725518D02*
X107276627Y-95732037D01*
X107389853Y-95766384D01*
X107446467Y-95783557D01*
X107547172Y-95837386D01*
X107602991Y-95867222D01*
X107617342Y-95879000D01*
X107740186Y-95979814D01*
X107797584Y-96049755D01*
X107852778Y-96117009D01*
X107852779Y-96117011D01*
X107936443Y-96273533D01*
X107936443Y-96273534D01*
X107987963Y-96443373D01*
X108005359Y-96620000D01*
X107987963Y-96796627D01*
X107967946Y-96862614D01*
X107936443Y-96966467D01*
X107893723Y-97046389D01*
X107852778Y-97122991D01*
X107840964Y-97137386D01*
X107740186Y-97260186D01*
X107668160Y-97319295D01*
X107602991Y-97372778D01*
X107602989Y-97372779D01*
X107446467Y-97456443D01*
X107398478Y-97471000D01*
X107276627Y-97507963D01*
X107210443Y-97514481D01*
X107144260Y-97521000D01*
X107055740Y-97521000D01*
X106989557Y-97514481D01*
X106923373Y-97507963D01*
X106801522Y-97471000D01*
X106753533Y-97456443D01*
X106597011Y-97372779D01*
X106597009Y-97372778D01*
X106531840Y-97319295D01*
X106459814Y-97260186D01*
X106359036Y-97137386D01*
X106347222Y-97122991D01*
X106306277Y-97046389D01*
X106263557Y-96966467D01*
X106232054Y-96862614D01*
X106212037Y-96796627D01*
X106194641Y-96620000D01*
X106212037Y-96443373D01*
X106263557Y-96273534D01*
X106263557Y-96273533D01*
X106347221Y-96117011D01*
X106347222Y-96117009D01*
X106402416Y-96049755D01*
X106459814Y-95979814D01*
X106582658Y-95879000D01*
X106597009Y-95867222D01*
X106652828Y-95837386D01*
X106753533Y-95783557D01*
X106810147Y-95766384D01*
X106923373Y-95732037D01*
X106989558Y-95725518D01*
X107055740Y-95719000D01*
X107144260Y-95719000D01*
X107210442Y-95725518D01*
X107210442Y-95725518D01*
G37*
G36*
X118787386Y-96547100D02*
X118873102Y-96582604D01*
X118950248Y-96634152D01*
X119015848Y-96699752D01*
X119067396Y-96776898D01*
X119102900Y-96862614D01*
X119121000Y-96953609D01*
X119121000Y-97046391D01*
X119102900Y-97137386D01*
X119067396Y-97223102D01*
X119015848Y-97300248D01*
X118950248Y-97365848D01*
X118873102Y-97417396D01*
X118787386Y-97452900D01*
X118696391Y-97471000D01*
X118603609Y-97471000D01*
X118512614Y-97452900D01*
X118426898Y-97417396D01*
X118349752Y-97365848D01*
X118284152Y-97300248D01*
X118232604Y-97223102D01*
X118197100Y-97137386D01*
X118179000Y-97046391D01*
X118179000Y-96953609D01*
X118197100Y-96862614D01*
X118232604Y-96776898D01*
X118284152Y-96699752D01*
X118349752Y-96634152D01*
X118426898Y-96582604D01*
X118512614Y-96547100D01*
X118603609Y-96529000D01*
X118696391Y-96529000D01*
X118787386Y-96547100D01*
X118787386Y-96547100D01*
G37*
G36*
X117787386Y-95897100D02*
X117873102Y-95932604D01*
X117950248Y-95984152D01*
X118015848Y-96049752D01*
X118067396Y-96126898D01*
X118102900Y-96212614D01*
X118121000Y-96303609D01*
X118121000Y-96396391D01*
X118102900Y-96487386D01*
X118067396Y-96573102D01*
X118015848Y-96650248D01*
X117950248Y-96715848D01*
X117873102Y-96767396D01*
X117787386Y-96802900D01*
X117696391Y-96821000D01*
X117603609Y-96821000D01*
X117512614Y-96802900D01*
X117426898Y-96767396D01*
X117349752Y-96715848D01*
X117284152Y-96650248D01*
X117232604Y-96573102D01*
X117197100Y-96487386D01*
X117179000Y-96396391D01*
X117179000Y-96303609D01*
X117197100Y-96212614D01*
X117232604Y-96126898D01*
X117284152Y-96049752D01*
X117349752Y-95984152D01*
X117426898Y-95932604D01*
X117512614Y-95897100D01*
X117603609Y-95879000D01*
X117696391Y-95879000D01*
X117787386Y-95897100D01*
X117787386Y-95897100D01*
G37*
G36*
X118787386Y-95247100D02*
X118873102Y-95282604D01*
X118950248Y-95334152D01*
X119015848Y-95399752D01*
X119067396Y-95476898D01*
X119102900Y-95562614D01*
X119121000Y-95653609D01*
X119121000Y-95746391D01*
X119102900Y-95837386D01*
X119067396Y-95923102D01*
X119015848Y-96000248D01*
X118950248Y-96065848D01*
X118873102Y-96117396D01*
X118787386Y-96152900D01*
X118696391Y-96171000D01*
X118603609Y-96171000D01*
X118512614Y-96152900D01*
X118426898Y-96117396D01*
X118349752Y-96065848D01*
X118284152Y-96000248D01*
X118232604Y-95923102D01*
X118197100Y-95837386D01*
X118179000Y-95746391D01*
X118179000Y-95653609D01*
X118197100Y-95562614D01*
X118232604Y-95476898D01*
X118284152Y-95399752D01*
X118349752Y-95334152D01*
X118426898Y-95282604D01*
X118512614Y-95247100D01*
X118603609Y-95229000D01*
X118696391Y-95229000D01*
X118787386Y-95247100D01*
X118787386Y-95247100D01*
G37*
G36*
X119121000Y-94871000D02*
X118246000Y-94871000D01*
X118221614Y-94873402D01*
X118198165Y-94880515D01*
X118176554Y-94892066D01*
X118157612Y-94907612D01*
X118142066Y-94926554D01*
X118130515Y-94948165D01*
X118123402Y-94971614D01*
X118121000Y-94996000D01*
X118121000Y-95096391D01*
X118102900Y-95187386D01*
X118067396Y-95273102D01*
X118015848Y-95350248D01*
X117950248Y-95415848D01*
X117873102Y-95467396D01*
X117787386Y-95502900D01*
X117696391Y-95521000D01*
X117603609Y-95521000D01*
X117512614Y-95502900D01*
X117426898Y-95467396D01*
X117349752Y-95415848D01*
X117284152Y-95350248D01*
X117232604Y-95273102D01*
X117197100Y-95187386D01*
X117179000Y-95096391D01*
X117179000Y-95003609D01*
X117197100Y-94912614D01*
X117232604Y-94826898D01*
X117284152Y-94749752D01*
X117349752Y-94684152D01*
X117426898Y-94632604D01*
X117512614Y-94597100D01*
X117603609Y-94579000D01*
X117696391Y-94579000D01*
X117787386Y-94597100D01*
X117873102Y-94632604D01*
X117950248Y-94684152D01*
X117965612Y-94699516D01*
X117984554Y-94715062D01*
X118006165Y-94726613D01*
X118029614Y-94733726D01*
X118054000Y-94736128D01*
X118078386Y-94733726D01*
X118101835Y-94726613D01*
X118123446Y-94715062D01*
X118142388Y-94699516D01*
X118157934Y-94680574D01*
X118169485Y-94658963D01*
X118176598Y-94635514D01*
X118179000Y-94611128D01*
X118179000Y-93929000D01*
X119121000Y-93929000D01*
X119121000Y-94871000D01*
X119121000Y-94871000D01*
G37*
G36*
X133194295Y-93698634D02*
X133366695Y-93750932D01*
X133366697Y-93750933D01*
X133525584Y-93835860D01*
X133525586Y-93835861D01*
X133525585Y-93835861D01*
X133664850Y-93950152D01*
X133779141Y-94089417D01*
X133864070Y-94248307D01*
X133916368Y-94420707D01*
X133934026Y-94600001D01*
X133916368Y-94779295D01*
X133864070Y-94951695D01*
X133864069Y-94951697D01*
X133779142Y-95110584D01*
X133664850Y-95249850D01*
X133525584Y-95364142D01*
X133428849Y-95415848D01*
X133366695Y-95449070D01*
X133194295Y-95501368D01*
X133059932Y-95514601D01*
X132970070Y-95514601D01*
X132835707Y-95501368D01*
X132663307Y-95449070D01*
X132601153Y-95415848D01*
X132504418Y-95364142D01*
X132365152Y-95249850D01*
X132250860Y-95110584D01*
X132165933Y-94951697D01*
X132165932Y-94951695D01*
X132113634Y-94779295D01*
X132095976Y-94600001D01*
X132113634Y-94420707D01*
X132165932Y-94248307D01*
X132250861Y-94089417D01*
X132365152Y-93950152D01*
X132504417Y-93835861D01*
X132504416Y-93835861D01*
X132504418Y-93835860D01*
X132663305Y-93750933D01*
X132663307Y-93750932D01*
X132835707Y-93698634D01*
X132970070Y-93685401D01*
X133059932Y-93685401D01*
X133194295Y-93698634D01*
X133194295Y-93698634D01*
G37*
G36*
X135734295Y-93698634D02*
X135906695Y-93750932D01*
X135906697Y-93750933D01*
X136065584Y-93835860D01*
X136065586Y-93835861D01*
X136065585Y-93835861D01*
X136204850Y-93950152D01*
X136319141Y-94089417D01*
X136404070Y-94248307D01*
X136456368Y-94420707D01*
X136474026Y-94600001D01*
X136456368Y-94779295D01*
X136404070Y-94951695D01*
X136404069Y-94951697D01*
X136319142Y-95110584D01*
X136204850Y-95249850D01*
X136065584Y-95364142D01*
X135968849Y-95415848D01*
X135906695Y-95449070D01*
X135734295Y-95501368D01*
X135599932Y-95514601D01*
X135510070Y-95514601D01*
X135375707Y-95501368D01*
X135203307Y-95449070D01*
X135141153Y-95415848D01*
X135044418Y-95364142D01*
X134905152Y-95249850D01*
X134790860Y-95110584D01*
X134705933Y-94951697D01*
X134705932Y-94951695D01*
X134653634Y-94779295D01*
X134635976Y-94600001D01*
X134653634Y-94420707D01*
X134705932Y-94248307D01*
X134790861Y-94089417D01*
X134905152Y-93950152D01*
X135044417Y-93835861D01*
X135044416Y-93835861D01*
X135044418Y-93835860D01*
X135203305Y-93750933D01*
X135203307Y-93750932D01*
X135375707Y-93698634D01*
X135510070Y-93685401D01*
X135599932Y-93685401D01*
X135734295Y-93698634D01*
X135734295Y-93698634D01*
G37*
G36*
X107210442Y-93185518D02*
X107276627Y-93192037D01*
X107389853Y-93226384D01*
X107446467Y-93243557D01*
X107585087Y-93317652D01*
X107602991Y-93327222D01*
X107638729Y-93356552D01*
X107740186Y-93439814D01*
X107823448Y-93541271D01*
X107852778Y-93577009D01*
X107852779Y-93577011D01*
X107936443Y-93733533D01*
X107936443Y-93733534D01*
X107987963Y-93903373D01*
X108005359Y-94080000D01*
X107987963Y-94256627D01*
X107953616Y-94369853D01*
X107936443Y-94426467D01*
X107862348Y-94565087D01*
X107852778Y-94582991D01*
X107841199Y-94597100D01*
X107740186Y-94720186D01*
X107668160Y-94779295D01*
X107602991Y-94832778D01*
X107602989Y-94832779D01*
X107446467Y-94916443D01*
X107389853Y-94933616D01*
X107276627Y-94967963D01*
X107210443Y-94974481D01*
X107144260Y-94981000D01*
X107055740Y-94981000D01*
X106989557Y-94974481D01*
X106923373Y-94967963D01*
X106810147Y-94933616D01*
X106753533Y-94916443D01*
X106597011Y-94832779D01*
X106597009Y-94832778D01*
X106531840Y-94779295D01*
X106459814Y-94720186D01*
X106358801Y-94597100D01*
X106347222Y-94582991D01*
X106337652Y-94565087D01*
X106263557Y-94426467D01*
X106246384Y-94369853D01*
X106212037Y-94256627D01*
X106194641Y-94080000D01*
X106212037Y-93903373D01*
X106263557Y-93733534D01*
X106263557Y-93733533D01*
X106347221Y-93577011D01*
X106347222Y-93577009D01*
X106376552Y-93541271D01*
X106459814Y-93439814D01*
X106561271Y-93356552D01*
X106597009Y-93327222D01*
X106614913Y-93317652D01*
X106753533Y-93243557D01*
X106810147Y-93226384D01*
X106923373Y-93192037D01*
X106989558Y-93185518D01*
X107055740Y-93179000D01*
X107144260Y-93179000D01*
X107210442Y-93185518D01*
X107210442Y-93185518D01*
G37*
G36*
X135734295Y-91158634D02*
X135906695Y-91210932D01*
X135906697Y-91210933D01*
X136065584Y-91295860D01*
X136065586Y-91295861D01*
X136065585Y-91295861D01*
X136204850Y-91410152D01*
X136319141Y-91549417D01*
X136404070Y-91708307D01*
X136456368Y-91880707D01*
X136474026Y-92060001D01*
X136456368Y-92239295D01*
X136410429Y-92390731D01*
X136404069Y-92411697D01*
X136319142Y-92570584D01*
X136204850Y-92709850D01*
X136065584Y-92824142D01*
X135906697Y-92909069D01*
X135906695Y-92909070D01*
X135734295Y-92961368D01*
X135599932Y-92974601D01*
X135510070Y-92974601D01*
X135375707Y-92961368D01*
X135203307Y-92909070D01*
X135203305Y-92909069D01*
X135044418Y-92824142D01*
X134905152Y-92709850D01*
X134790860Y-92570584D01*
X134705933Y-92411697D01*
X134699573Y-92390731D01*
X134653634Y-92239295D01*
X134635976Y-92060001D01*
X134653634Y-91880707D01*
X134705932Y-91708307D01*
X134790861Y-91549417D01*
X134905152Y-91410152D01*
X135044417Y-91295861D01*
X135044416Y-91295861D01*
X135044418Y-91295860D01*
X135203305Y-91210933D01*
X135203307Y-91210932D01*
X135375707Y-91158634D01*
X135510070Y-91145401D01*
X135599932Y-91145401D01*
X135734295Y-91158634D01*
X135734295Y-91158634D01*
G37*
G36*
X133929601Y-92974601D02*
X132100401Y-92974601D01*
X132100401Y-91145401D01*
X133929601Y-91145401D01*
X133929601Y-92974601D01*
X133929601Y-92974601D01*
G37*
G36*
X119023312Y-91655887D02*
X119113039Y-91683106D01*
X119195731Y-91727306D01*
X119268211Y-91786789D01*
X119327694Y-91859269D01*
X119371894Y-91941961D01*
X119399113Y-92031688D01*
X119408303Y-92125000D01*
X119399113Y-92218312D01*
X119371894Y-92308039D01*
X119327694Y-92390731D01*
X119268211Y-92463211D01*
X119195731Y-92522694D01*
X119113039Y-92566894D01*
X119023312Y-92594113D01*
X118953384Y-92601000D01*
X117906616Y-92601000D01*
X117836688Y-92594113D01*
X117746961Y-92566894D01*
X117664269Y-92522694D01*
X117591789Y-92463211D01*
X117532306Y-92390731D01*
X117488106Y-92308039D01*
X117460887Y-92218312D01*
X117451697Y-92125000D01*
X117460887Y-92031688D01*
X117488106Y-91941961D01*
X117532306Y-91859269D01*
X117591789Y-91786789D01*
X117664269Y-91727306D01*
X117746961Y-91683106D01*
X117836688Y-91655887D01*
X117906616Y-91649000D01*
X118953384Y-91649000D01*
X119023312Y-91655887D01*
X119023312Y-91655887D01*
G37*
G36*
X107210443Y-90645519D02*
X107276627Y-90652037D01*
X107389853Y-90686384D01*
X107446467Y-90703557D01*
X107585087Y-90777652D01*
X107602991Y-90787222D01*
X107638729Y-90816552D01*
X107740186Y-90899814D01*
X107823448Y-91001271D01*
X107852778Y-91037009D01*
X107852779Y-91037011D01*
X107936443Y-91193533D01*
X107936443Y-91193534D01*
X107987963Y-91363373D01*
X108005359Y-91540000D01*
X107987963Y-91716627D01*
X107953616Y-91829853D01*
X107936443Y-91886467D01*
X107906780Y-91941961D01*
X107852778Y-92042991D01*
X107838818Y-92060001D01*
X107740186Y-92180186D01*
X107668160Y-92239295D01*
X107602991Y-92292778D01*
X107602989Y-92292779D01*
X107446467Y-92376443D01*
X107399378Y-92390727D01*
X107276627Y-92427963D01*
X107210443Y-92434481D01*
X107144260Y-92441000D01*
X107055740Y-92441000D01*
X106989557Y-92434481D01*
X106923373Y-92427963D01*
X106800622Y-92390727D01*
X106753533Y-92376443D01*
X106597011Y-92292779D01*
X106597009Y-92292778D01*
X106531840Y-92239295D01*
X106459814Y-92180186D01*
X106361182Y-92060001D01*
X106347222Y-92042991D01*
X106293220Y-91941961D01*
X106263557Y-91886467D01*
X106246384Y-91829853D01*
X106212037Y-91716627D01*
X106194641Y-91540000D01*
X106212037Y-91363373D01*
X106263557Y-91193534D01*
X106263557Y-91193533D01*
X106347221Y-91037011D01*
X106347222Y-91037009D01*
X106376552Y-91001271D01*
X106459814Y-90899814D01*
X106561271Y-90816552D01*
X106597009Y-90787222D01*
X106614913Y-90777652D01*
X106753533Y-90703557D01*
X106810147Y-90686384D01*
X106923373Y-90652037D01*
X106989557Y-90645519D01*
X107055740Y-90639000D01*
X107144260Y-90639000D01*
X107210443Y-90645519D01*
X107210443Y-90645519D01*
G37*
M02*
