M48
;DRILL file {KiCad 5.0.2-bee76a0~70~ubuntu18.04.1} date Tue 13 Aug 2019 19:29:32 BST
;FORMAT={-:-/ absolute / metric / decimal}
FMAT,2
METRIC,TZ
T1C0.350
T2C0.440
T3C1.000
T4C1.016
%
G90
G05
T2
X117.65Y-95.05
X117.65Y-96.35
X118.65Y-94.4
X118.65Y-95.7
X118.65Y-97.
T3
X107.1Y-91.54
X107.1Y-94.08
X107.1Y-96.62
X107.1Y-99.16
X107.1Y-101.7
T4
X133.015Y-92.06
X133.015Y-94.6
X133.015Y-97.14
X133.015Y-99.68
X135.555Y-92.06
X135.555Y-94.6
X135.555Y-97.14
X135.555Y-99.68
T1
X118.93Y-92.125G85X117.93Y-92.125
G05
X118.93Y-99.275G85X117.93Y-99.275
G05
T0
M30
