G04 #@! TF.GenerationSoftware,KiCad,Pcbnew,5.0.2-bee76a0~70~ubuntu18.04.1*
G04 #@! TF.CreationDate,2019-08-02T17:52:02+01:00*
G04 #@! TF.ProjectId,UART_plain,55415254-5f70-46c6-9169-6e2e6b696361,rev?*
G04 #@! TF.SameCoordinates,Original*
G04 #@! TF.FileFunction,Copper,L1,Top*
G04 #@! TF.FilePolarity,Positive*
%FSLAX46Y46*%
G04 Gerber Fmt 4.6, Leading zero omitted, Abs format (unit mm)*
G04 Created by KiCad (PCBNEW 5.0.2-bee76a0~70~ubuntu18.04.1) date Fri 02 Aug 2019 17:52:02 BST*
%MOMM*%
%LPD*%
G01*
G04 APERTURE LIST*
G04 #@! TA.AperFunction,NonConductor*
%ADD10C,0.200000*%
G04 #@! TD*
G04 #@! TA.AperFunction,ComponentPad*
%ADD11R,1.727200X1.727200*%
G04 #@! TD*
G04 #@! TA.AperFunction,ComponentPad*
%ADD12O,1.727200X1.727200*%
G04 #@! TD*
G04 #@! TA.AperFunction,ComponentPad*
%ADD13R,1.700000X1.700000*%
G04 #@! TD*
G04 #@! TA.AperFunction,ComponentPad*
%ADD14O,1.700000X1.700000*%
G04 #@! TD*
G04 #@! TA.AperFunction,Conductor*
%ADD15C,0.250000*%
G04 #@! TD*
G04 #@! TA.AperFunction,Conductor*
%ADD16C,0.254000*%
G04 #@! TD*
G04 APERTURE END LIST*
D10*
X132642857Y-107452380D02*
X132642857Y-106452380D01*
X132642857Y-107404761D02*
X132547619Y-107452380D01*
X132357142Y-107452380D01*
X132261904Y-107404761D01*
X132214285Y-107357142D01*
X132166666Y-107261904D01*
X132166666Y-106976190D01*
X132214285Y-106880952D01*
X132261904Y-106833333D01*
X132357142Y-106785714D01*
X132547619Y-106785714D01*
X132642857Y-106833333D01*
X133500000Y-107404761D02*
X133404761Y-107452380D01*
X133214285Y-107452380D01*
X133119047Y-107404761D01*
X133071428Y-107309523D01*
X133071428Y-106928571D01*
X133119047Y-106833333D01*
X133214285Y-106785714D01*
X133404761Y-106785714D01*
X133500000Y-106833333D01*
X133547619Y-106928571D01*
X133547619Y-107023809D01*
X133071428Y-107119047D01*
X133833333Y-106785714D02*
X134214285Y-106785714D01*
X133976190Y-107452380D02*
X133976190Y-106595238D01*
X134023809Y-106500000D01*
X134119047Y-106452380D01*
X134214285Y-106452380D01*
X134547619Y-106785714D02*
X134547619Y-107785714D01*
X134547619Y-106833333D02*
X134642857Y-106785714D01*
X134833333Y-106785714D01*
X134928571Y-106833333D01*
X134976190Y-106880952D01*
X135023809Y-106976190D01*
X135023809Y-107261904D01*
X134976190Y-107357142D01*
X134928571Y-107404761D01*
X134833333Y-107452380D01*
X134642857Y-107452380D01*
X134547619Y-107404761D01*
X135452380Y-107452380D02*
X135452380Y-106785714D01*
X135452380Y-106976190D02*
X135500000Y-106880952D01*
X135547619Y-106833333D01*
X135642857Y-106785714D01*
X135738095Y-106785714D01*
X136214285Y-107452380D02*
X136119047Y-107404761D01*
X136071428Y-107357142D01*
X136023809Y-107261904D01*
X136023809Y-106976190D01*
X136071428Y-106880952D01*
X136119047Y-106833333D01*
X136214285Y-106785714D01*
X136357142Y-106785714D01*
X136452380Y-106833333D01*
X136500000Y-106880952D01*
X136547619Y-106976190D01*
X136547619Y-107261904D01*
X136500000Y-107357142D01*
X136452380Y-107404761D01*
X136357142Y-107452380D01*
X136214285Y-107452380D01*
X137404761Y-107404761D02*
X137309523Y-107452380D01*
X137119047Y-107452380D01*
X137023809Y-107404761D01*
X136976190Y-107357142D01*
X136928571Y-107261904D01*
X136928571Y-106976190D01*
X136976190Y-106880952D01*
X137023809Y-106833333D01*
X137119047Y-106785714D01*
X137309523Y-106785714D01*
X137404761Y-106833333D01*
X137833333Y-107357142D02*
X137880952Y-107404761D01*
X137833333Y-107452380D01*
X137785714Y-107404761D01*
X137833333Y-107357142D01*
X137833333Y-107452380D01*
X138738095Y-107404761D02*
X138642857Y-107452380D01*
X138452380Y-107452380D01*
X138357142Y-107404761D01*
X138309523Y-107357142D01*
X138261904Y-107261904D01*
X138261904Y-106976190D01*
X138309523Y-106880952D01*
X138357142Y-106833333D01*
X138452380Y-106785714D01*
X138642857Y-106785714D01*
X138738095Y-106833333D01*
X139309523Y-107452380D02*
X139214285Y-107404761D01*
X139166666Y-107357142D01*
X139119047Y-107261904D01*
X139119047Y-106976190D01*
X139166666Y-106880952D01*
X139214285Y-106833333D01*
X139309523Y-106785714D01*
X139452380Y-106785714D01*
X139547619Y-106833333D01*
X139595238Y-106880952D01*
X139642857Y-106976190D01*
X139642857Y-107261904D01*
X139595238Y-107357142D01*
X139547619Y-107404761D01*
X139452380Y-107452380D01*
X139309523Y-107452380D01*
X140071428Y-107357142D02*
X140119047Y-107404761D01*
X140071428Y-107452380D01*
X140023809Y-107404761D01*
X140071428Y-107357142D01*
X140071428Y-107452380D01*
X140976190Y-106785714D02*
X140976190Y-107452380D01*
X140547619Y-106785714D02*
X140547619Y-107309523D01*
X140595238Y-107404761D01*
X140690476Y-107452380D01*
X140833333Y-107452380D01*
X140928571Y-107404761D01*
X140976190Y-107357142D01*
X141452380Y-107452380D02*
X141452380Y-106452380D01*
X141547619Y-107071428D02*
X141833333Y-107452380D01*
X141833333Y-106785714D02*
X141452380Y-107166666D01*
D11*
G04 #@! TO.P,J2,1*
G04 #@! TO.N,VDD*
X132215001Y-92060001D03*
D12*
G04 #@! TO.P,J2,2*
G04 #@! TO.N,/RTS*
X134755001Y-92060001D03*
G04 #@! TO.P,J2,3*
G04 #@! TO.N,/RX2*
X132215001Y-94600001D03*
G04 #@! TO.P,J2,4*
G04 #@! TO.N,/CTS*
X134755001Y-94600001D03*
G04 #@! TO.P,J2,5*
G04 #@! TO.N,/TX2*
X132215001Y-97140001D03*
G04 #@! TO.P,J2,6*
G04 #@! TO.N,/TX*
X134755001Y-97140001D03*
G04 #@! TO.P,J2,7*
G04 #@! TO.N,GND*
X132215001Y-99680001D03*
G04 #@! TO.P,J2,8*
G04 #@! TO.N,/RX*
X134755001Y-99680001D03*
G04 #@! TD*
D13*
G04 #@! TO.P,J1,1*
G04 #@! TO.N,GND*
X108400000Y-102700000D03*
D14*
G04 #@! TO.P,J1,2*
G04 #@! TO.N,/CTS*
X108400000Y-100160000D03*
G04 #@! TO.P,J1,3*
G04 #@! TO.N,VDD*
X108400000Y-97620000D03*
G04 #@! TO.P,J1,4*
G04 #@! TO.N,/RX*
X108400000Y-95080000D03*
G04 #@! TO.P,J1,5*
G04 #@! TO.N,/TX*
X108400000Y-92540000D03*
G04 #@! TO.P,J1,6*
G04 #@! TO.N,/RTS*
X108400000Y-90000000D03*
G04 #@! TD*
D13*
G04 #@! TO.P,J3,1*
G04 #@! TO.N,/RX2*
X124660000Y-106500000D03*
D14*
G04 #@! TO.P,J3,2*
G04 #@! TO.N,/TX2*
X127200000Y-106500000D03*
G04 #@! TD*
D15*
G04 #@! TO.N,/CTS*
X133455000Y-93300000D02*
X115260000Y-93300000D01*
X134755001Y-94600001D02*
X133455000Y-93300000D01*
X115260000Y-93300000D02*
X109249999Y-99310001D01*
X109249999Y-99310001D02*
X108400000Y-100160000D01*
G04 #@! TO.N,VDD*
X132215001Y-92060001D02*
X113959999Y-92060001D01*
X113959999Y-92060001D02*
X108400000Y-97620000D01*
G04 #@! TO.N,/RTS*
X109602081Y-90000000D02*
X108400000Y-90000000D01*
X134755001Y-90838687D02*
X133916314Y-90000000D01*
X133916314Y-90000000D02*
X109602081Y-90000000D01*
X134755001Y-92060001D02*
X134755001Y-90838687D01*
G04 #@! TO.N,/RX2*
X124660000Y-102155002D02*
X124660000Y-106500000D01*
X132215001Y-94600001D02*
X124660000Y-102155002D01*
G04 #@! TO.N,/TX2*
X127200000Y-102155002D02*
X127200000Y-106500000D01*
X132215001Y-97140001D02*
X127200000Y-102155002D01*
G04 #@! TD*
D16*
G04 #@! TO.N,GND*
G36*
X109716264Y-84393348D02*
X109740339Y-84450411D01*
X109763680Y-84507678D01*
X109766522Y-84512470D01*
X110058792Y-84998409D01*
X110097888Y-85046388D01*
X110136390Y-85094835D01*
X110140463Y-85098637D01*
X110557371Y-85483012D01*
X110608329Y-85518067D01*
X110658914Y-85553784D01*
X110663890Y-85556290D01*
X111171923Y-85808204D01*
X111230727Y-85827566D01*
X111289248Y-85847631D01*
X111294727Y-85848639D01*
X111853042Y-85947840D01*
X111914867Y-85949918D01*
X111976719Y-85952754D01*
X111982260Y-85952183D01*
X112545978Y-85890695D01*
X112605918Y-85875333D01*
X112666059Y-85860700D01*
X112671215Y-85858598D01*
X112671220Y-85858597D01*
X112671225Y-85858594D01*
X113195020Y-85641365D01*
X113248212Y-85609813D01*
X113301859Y-85578872D01*
X113306220Y-85575406D01*
X113462691Y-85449487D01*
X113620216Y-85575740D01*
X113644462Y-85590258D01*
X113666289Y-85608202D01*
X113725576Y-85638967D01*
X114255310Y-85866287D01*
X114282989Y-85873924D01*
X114309250Y-85885520D01*
X114374625Y-85899208D01*
X114945977Y-85975697D01*
X114974689Y-85975609D01*
X115003101Y-85979716D01*
X115069750Y-85975319D01*
X115640624Y-85895342D01*
X115668251Y-85887537D01*
X115696723Y-85883852D01*
X115759734Y-85861693D01*
X116288071Y-85631145D01*
X116312584Y-85616197D01*
X116339015Y-85604991D01*
X116393746Y-85566704D01*
X116554942Y-85435353D01*
X116710675Y-85560169D01*
X116734921Y-85574687D01*
X116756748Y-85592631D01*
X116816035Y-85623396D01*
X117345769Y-85850716D01*
X117373448Y-85858353D01*
X117399709Y-85869949D01*
X117465084Y-85883637D01*
X118036436Y-85960126D01*
X118065148Y-85960038D01*
X118093560Y-85964145D01*
X118160209Y-85959748D01*
X118731083Y-85879771D01*
X118758710Y-85871966D01*
X118787182Y-85868281D01*
X118850193Y-85846122D01*
X119378530Y-85615574D01*
X119403043Y-85600626D01*
X119429474Y-85589420D01*
X119484205Y-85551133D01*
X119622752Y-85438238D01*
X119640778Y-85453434D01*
X119645521Y-85456356D01*
X120126500Y-85748578D01*
X120183414Y-85772890D01*
X120240023Y-85797894D01*
X120245396Y-85799367D01*
X120789059Y-85944849D01*
X120850523Y-85952212D01*
X120911861Y-85960321D01*
X120917431Y-85960227D01*
X121480074Y-85947273D01*
X121541105Y-85937094D01*
X121602283Y-85927657D01*
X121607603Y-85926003D01*
X122143993Y-85755654D01*
X122199704Y-85728760D01*
X122255784Y-85702527D01*
X122260426Y-85699447D01*
X122727445Y-85385399D01*
X122773352Y-85343964D01*
X122819832Y-85303031D01*
X122823423Y-85298771D01*
X123183528Y-84866269D01*
X123215983Y-84813579D01*
X123249084Y-84761281D01*
X123251334Y-84756185D01*
X123475577Y-84239997D01*
X123491936Y-84180324D01*
X123509030Y-84120832D01*
X123509760Y-84115308D01*
X123526682Y-83981000D01*
X141547373Y-83981000D01*
X141564073Y-83977678D01*
X141704761Y-84005663D01*
X141878349Y-84121651D01*
X141994337Y-84295239D01*
X142022322Y-84435928D01*
X142019000Y-84452628D01*
X142019001Y-105849000D01*
X131495191Y-105849000D01*
X131495191Y-108019000D01*
X105952627Y-108019000D01*
X105935927Y-108022322D01*
X105795239Y-107994337D01*
X105621651Y-107878349D01*
X105505663Y-107704761D01*
X105477678Y-107564073D01*
X105481000Y-107547373D01*
X105481000Y-102985750D01*
X106915000Y-102985750D01*
X106915000Y-103676310D01*
X107011673Y-103909699D01*
X107190302Y-104088327D01*
X107423691Y-104185000D01*
X108114250Y-104185000D01*
X108273000Y-104026250D01*
X108273000Y-102827000D01*
X108527000Y-102827000D01*
X108527000Y-104026250D01*
X108685750Y-104185000D01*
X109376309Y-104185000D01*
X109609698Y-104088327D01*
X109788327Y-103909699D01*
X109885000Y-103676310D01*
X109885000Y-102985750D01*
X109726250Y-102827000D01*
X108527000Y-102827000D01*
X108273000Y-102827000D01*
X107073750Y-102827000D01*
X106915000Y-102985750D01*
X105481000Y-102985750D01*
X105481000Y-101723690D01*
X106915000Y-101723690D01*
X106915000Y-102414250D01*
X107073750Y-102573000D01*
X108273000Y-102573000D01*
X108273000Y-102553000D01*
X108527000Y-102553000D01*
X108527000Y-102573000D01*
X109726250Y-102573000D01*
X109885000Y-102414250D01*
X109885000Y-101723690D01*
X109788327Y-101490301D01*
X109609698Y-101311673D01*
X109376309Y-101215000D01*
X109036821Y-101215000D01*
X109287501Y-101047501D01*
X109559576Y-100640312D01*
X109655116Y-100160000D01*
X109565603Y-99709989D01*
X109643033Y-99632559D01*
X109643035Y-99632556D01*
X115469592Y-93806000D01*
X131248669Y-93806000D01*
X131042614Y-94114382D01*
X130946018Y-94600001D01*
X131037832Y-95061578D01*
X124337448Y-101761963D01*
X124295194Y-101790196D01*
X124183359Y-101957572D01*
X124154514Y-102102582D01*
X124144087Y-102155002D01*
X124154000Y-102204836D01*
X124154001Y-105261536D01*
X123810000Y-105261536D01*
X123661341Y-105291106D01*
X123535314Y-105375314D01*
X123451106Y-105501341D01*
X123421536Y-105650000D01*
X123421536Y-107350000D01*
X123451106Y-107498659D01*
X123535314Y-107624686D01*
X123661341Y-107708894D01*
X123810000Y-107738464D01*
X125510000Y-107738464D01*
X125658659Y-107708894D01*
X125784686Y-107624686D01*
X125868894Y-107498659D01*
X125898464Y-107350000D01*
X125898464Y-106500000D01*
X125944884Y-106500000D01*
X126040424Y-106980312D01*
X126312499Y-107387501D01*
X126719688Y-107659576D01*
X127078761Y-107731000D01*
X127321239Y-107731000D01*
X127680312Y-107659576D01*
X128087501Y-107387501D01*
X128359576Y-106980312D01*
X128455116Y-106500000D01*
X128359576Y-106019688D01*
X128087501Y-105612499D01*
X127706000Y-105357588D01*
X127706000Y-102364593D01*
X130031566Y-100039027D01*
X130760043Y-100039027D01*
X130932313Y-100454948D01*
X131326511Y-100886822D01*
X131855974Y-101134969D01*
X132088001Y-101014470D01*
X132088001Y-99807001D01*
X130881184Y-99807001D01*
X130760043Y-100039027D01*
X130031566Y-100039027D01*
X130767413Y-99303180D01*
X130760043Y-99320975D01*
X130881184Y-99553001D01*
X132088001Y-99553001D01*
X132088001Y-99533001D01*
X132342001Y-99533001D01*
X132342001Y-99553001D01*
X132362001Y-99553001D01*
X132362001Y-99807001D01*
X132342001Y-99807001D01*
X132342001Y-101014470D01*
X132574028Y-101134969D01*
X133103491Y-100886822D01*
X133497689Y-100454948D01*
X133604166Y-100197875D01*
X133857695Y-100577307D01*
X134269382Y-100852388D01*
X134632420Y-100924601D01*
X134877582Y-100924601D01*
X135240620Y-100852388D01*
X135652307Y-100577307D01*
X135927388Y-100165620D01*
X136023984Y-99680001D01*
X135927388Y-99194382D01*
X135652307Y-98782695D01*
X135240620Y-98507614D01*
X134877582Y-98435401D01*
X134632420Y-98435401D01*
X134269382Y-98507614D01*
X133857695Y-98782695D01*
X133604166Y-99162127D01*
X133497689Y-98905054D01*
X133103491Y-98473180D01*
X132725271Y-98295917D01*
X133112307Y-98037307D01*
X133387388Y-97625620D01*
X133483984Y-97140001D01*
X133486018Y-97140001D01*
X133582614Y-97625620D01*
X133857695Y-98037307D01*
X134269382Y-98312388D01*
X134632420Y-98384601D01*
X134877582Y-98384601D01*
X135240620Y-98312388D01*
X135652307Y-98037307D01*
X135927388Y-97625620D01*
X136023984Y-97140001D01*
X135927388Y-96654382D01*
X135652307Y-96242695D01*
X135240620Y-95967614D01*
X134877582Y-95895401D01*
X134632420Y-95895401D01*
X134269382Y-95967614D01*
X133857695Y-96242695D01*
X133582614Y-96654382D01*
X133486018Y-97140001D01*
X133483984Y-97140001D01*
X133387388Y-96654382D01*
X133112307Y-96242695D01*
X132700620Y-95967614D01*
X132337582Y-95895401D01*
X132092420Y-95895401D01*
X131729382Y-95967614D01*
X131317695Y-96242695D01*
X131042614Y-96654382D01*
X130946018Y-97140001D01*
X131037832Y-97601578D01*
X126877448Y-101761963D01*
X126835194Y-101790196D01*
X126723359Y-101957572D01*
X126694514Y-102102582D01*
X126684087Y-102155002D01*
X126694000Y-102204836D01*
X126694001Y-105357588D01*
X126312499Y-105612499D01*
X126040424Y-106019688D01*
X125944884Y-106500000D01*
X125898464Y-106500000D01*
X125898464Y-105650000D01*
X125868894Y-105501341D01*
X125784686Y-105375314D01*
X125658659Y-105291106D01*
X125510000Y-105261536D01*
X125166000Y-105261536D01*
X125166000Y-102364593D01*
X131753424Y-95777170D01*
X132092420Y-95844601D01*
X132337582Y-95844601D01*
X132700620Y-95772388D01*
X133112307Y-95497307D01*
X133387388Y-95085620D01*
X133483984Y-94600001D01*
X133387388Y-94114382D01*
X133181333Y-93806000D01*
X133245409Y-93806000D01*
X133577832Y-94138423D01*
X133486018Y-94600001D01*
X133582614Y-95085620D01*
X133857695Y-95497307D01*
X134269382Y-95772388D01*
X134632420Y-95844601D01*
X134877582Y-95844601D01*
X135240620Y-95772388D01*
X135652307Y-95497307D01*
X135927388Y-95085620D01*
X136023984Y-94600001D01*
X135927388Y-94114382D01*
X135652307Y-93702695D01*
X135240620Y-93427614D01*
X134877582Y-93355401D01*
X134632420Y-93355401D01*
X134293423Y-93422832D01*
X133848038Y-92977447D01*
X133819806Y-92935194D01*
X133652431Y-92823359D01*
X133504835Y-92794000D01*
X133504834Y-92794000D01*
X133467065Y-92786487D01*
X133467065Y-91196401D01*
X133437495Y-91047742D01*
X133353287Y-90921715D01*
X133227260Y-90837507D01*
X133078601Y-90807937D01*
X131351401Y-90807937D01*
X131202742Y-90837507D01*
X131076715Y-90921715D01*
X130992507Y-91047742D01*
X130962937Y-91196401D01*
X130962937Y-91554001D01*
X114009833Y-91554001D01*
X113959999Y-91544088D01*
X113910165Y-91554001D01*
X113910164Y-91554001D01*
X113762568Y-91583360D01*
X113595193Y-91695195D01*
X113566962Y-91737446D01*
X108850012Y-96454397D01*
X108521239Y-96389000D01*
X108278761Y-96389000D01*
X107919688Y-96460424D01*
X107512499Y-96732499D01*
X107240424Y-97139688D01*
X107144884Y-97620000D01*
X107240424Y-98100312D01*
X107512499Y-98507501D01*
X107919688Y-98779576D01*
X108278761Y-98851000D01*
X108521239Y-98851000D01*
X108880312Y-98779576D01*
X109287501Y-98507501D01*
X109559576Y-98100312D01*
X109655116Y-97620000D01*
X109565603Y-97169988D01*
X114169591Y-92566001D01*
X130962937Y-92566001D01*
X130962937Y-92794000D01*
X115309834Y-92794000D01*
X115260000Y-92784087D01*
X115210166Y-92794000D01*
X115210165Y-92794000D01*
X115062569Y-92823359D01*
X114895194Y-92935194D01*
X114866963Y-92977445D01*
X108927444Y-98916965D01*
X108927441Y-98916967D01*
X108850011Y-98994397D01*
X108521239Y-98929000D01*
X108278761Y-98929000D01*
X107919688Y-99000424D01*
X107512499Y-99272499D01*
X107240424Y-99679688D01*
X107144884Y-100160000D01*
X107240424Y-100640312D01*
X107512499Y-101047501D01*
X107763179Y-101215000D01*
X107423691Y-101215000D01*
X107190302Y-101311673D01*
X107011673Y-101490301D01*
X106915000Y-101723690D01*
X105481000Y-101723690D01*
X105481000Y-95080000D01*
X107144884Y-95080000D01*
X107240424Y-95560312D01*
X107512499Y-95967501D01*
X107919688Y-96239576D01*
X108278761Y-96311000D01*
X108521239Y-96311000D01*
X108880312Y-96239576D01*
X109287501Y-95967501D01*
X109559576Y-95560312D01*
X109655116Y-95080000D01*
X109559576Y-94599688D01*
X109287501Y-94192499D01*
X108880312Y-93920424D01*
X108521239Y-93849000D01*
X108278761Y-93849000D01*
X107919688Y-93920424D01*
X107512499Y-94192499D01*
X107240424Y-94599688D01*
X107144884Y-95080000D01*
X105481000Y-95080000D01*
X105481000Y-92540000D01*
X107144884Y-92540000D01*
X107240424Y-93020312D01*
X107512499Y-93427501D01*
X107919688Y-93699576D01*
X108278761Y-93771000D01*
X108521239Y-93771000D01*
X108880312Y-93699576D01*
X109287501Y-93427501D01*
X109559576Y-93020312D01*
X109655116Y-92540000D01*
X109559576Y-92059688D01*
X109287501Y-91652499D01*
X108880312Y-91380424D01*
X108521239Y-91309000D01*
X108278761Y-91309000D01*
X107919688Y-91380424D01*
X107512499Y-91652499D01*
X107240424Y-92059688D01*
X107144884Y-92540000D01*
X105481000Y-92540000D01*
X105481000Y-90000000D01*
X107144884Y-90000000D01*
X107240424Y-90480312D01*
X107512499Y-90887501D01*
X107919688Y-91159576D01*
X108278761Y-91231000D01*
X108521239Y-91231000D01*
X108880312Y-91159576D01*
X109287501Y-90887501D01*
X109542412Y-90506000D01*
X133706723Y-90506000D01*
X134160853Y-90960131D01*
X133857695Y-91162695D01*
X133582614Y-91574382D01*
X133486018Y-92060001D01*
X133582614Y-92545620D01*
X133857695Y-92957307D01*
X134269382Y-93232388D01*
X134632420Y-93304601D01*
X134877582Y-93304601D01*
X135240620Y-93232388D01*
X135652307Y-92957307D01*
X135927388Y-92545620D01*
X136023984Y-92060001D01*
X135927388Y-91574382D01*
X135652307Y-91162695D01*
X135261001Y-90901232D01*
X135261001Y-90888522D01*
X135270914Y-90838687D01*
X135231642Y-90641256D01*
X135148036Y-90516129D01*
X135119807Y-90473881D01*
X135077559Y-90445652D01*
X134309352Y-89677447D01*
X134281120Y-89635194D01*
X134113745Y-89523359D01*
X133966149Y-89494000D01*
X133966148Y-89494000D01*
X133916314Y-89484087D01*
X133866480Y-89494000D01*
X109542412Y-89494000D01*
X109287501Y-89112499D01*
X108880312Y-88840424D01*
X108521239Y-88769000D01*
X108278761Y-88769000D01*
X107919688Y-88840424D01*
X107512499Y-89112499D01*
X107240424Y-89519688D01*
X107144884Y-90000000D01*
X105481000Y-90000000D01*
X105481000Y-84452627D01*
X105477678Y-84435927D01*
X105505663Y-84295239D01*
X105621651Y-84121651D01*
X105795239Y-84005663D01*
X106044911Y-83956000D01*
X109601324Y-83956000D01*
X109716264Y-84393348D01*
X109716264Y-84393348D01*
G37*
X109716264Y-84393348D02*
X109740339Y-84450411D01*
X109763680Y-84507678D01*
X109766522Y-84512470D01*
X110058792Y-84998409D01*
X110097888Y-85046388D01*
X110136390Y-85094835D01*
X110140463Y-85098637D01*
X110557371Y-85483012D01*
X110608329Y-85518067D01*
X110658914Y-85553784D01*
X110663890Y-85556290D01*
X111171923Y-85808204D01*
X111230727Y-85827566D01*
X111289248Y-85847631D01*
X111294727Y-85848639D01*
X111853042Y-85947840D01*
X111914867Y-85949918D01*
X111976719Y-85952754D01*
X111982260Y-85952183D01*
X112545978Y-85890695D01*
X112605918Y-85875333D01*
X112666059Y-85860700D01*
X112671215Y-85858598D01*
X112671220Y-85858597D01*
X112671225Y-85858594D01*
X113195020Y-85641365D01*
X113248212Y-85609813D01*
X113301859Y-85578872D01*
X113306220Y-85575406D01*
X113462691Y-85449487D01*
X113620216Y-85575740D01*
X113644462Y-85590258D01*
X113666289Y-85608202D01*
X113725576Y-85638967D01*
X114255310Y-85866287D01*
X114282989Y-85873924D01*
X114309250Y-85885520D01*
X114374625Y-85899208D01*
X114945977Y-85975697D01*
X114974689Y-85975609D01*
X115003101Y-85979716D01*
X115069750Y-85975319D01*
X115640624Y-85895342D01*
X115668251Y-85887537D01*
X115696723Y-85883852D01*
X115759734Y-85861693D01*
X116288071Y-85631145D01*
X116312584Y-85616197D01*
X116339015Y-85604991D01*
X116393746Y-85566704D01*
X116554942Y-85435353D01*
X116710675Y-85560169D01*
X116734921Y-85574687D01*
X116756748Y-85592631D01*
X116816035Y-85623396D01*
X117345769Y-85850716D01*
X117373448Y-85858353D01*
X117399709Y-85869949D01*
X117465084Y-85883637D01*
X118036436Y-85960126D01*
X118065148Y-85960038D01*
X118093560Y-85964145D01*
X118160209Y-85959748D01*
X118731083Y-85879771D01*
X118758710Y-85871966D01*
X118787182Y-85868281D01*
X118850193Y-85846122D01*
X119378530Y-85615574D01*
X119403043Y-85600626D01*
X119429474Y-85589420D01*
X119484205Y-85551133D01*
X119622752Y-85438238D01*
X119640778Y-85453434D01*
X119645521Y-85456356D01*
X120126500Y-85748578D01*
X120183414Y-85772890D01*
X120240023Y-85797894D01*
X120245396Y-85799367D01*
X120789059Y-85944849D01*
X120850523Y-85952212D01*
X120911861Y-85960321D01*
X120917431Y-85960227D01*
X121480074Y-85947273D01*
X121541105Y-85937094D01*
X121602283Y-85927657D01*
X121607603Y-85926003D01*
X122143993Y-85755654D01*
X122199704Y-85728760D01*
X122255784Y-85702527D01*
X122260426Y-85699447D01*
X122727445Y-85385399D01*
X122773352Y-85343964D01*
X122819832Y-85303031D01*
X122823423Y-85298771D01*
X123183528Y-84866269D01*
X123215983Y-84813579D01*
X123249084Y-84761281D01*
X123251334Y-84756185D01*
X123475577Y-84239997D01*
X123491936Y-84180324D01*
X123509030Y-84120832D01*
X123509760Y-84115308D01*
X123526682Y-83981000D01*
X141547373Y-83981000D01*
X141564073Y-83977678D01*
X141704761Y-84005663D01*
X141878349Y-84121651D01*
X141994337Y-84295239D01*
X142022322Y-84435928D01*
X142019000Y-84452628D01*
X142019001Y-105849000D01*
X131495191Y-105849000D01*
X131495191Y-108019000D01*
X105952627Y-108019000D01*
X105935927Y-108022322D01*
X105795239Y-107994337D01*
X105621651Y-107878349D01*
X105505663Y-107704761D01*
X105477678Y-107564073D01*
X105481000Y-107547373D01*
X105481000Y-102985750D01*
X106915000Y-102985750D01*
X106915000Y-103676310D01*
X107011673Y-103909699D01*
X107190302Y-104088327D01*
X107423691Y-104185000D01*
X108114250Y-104185000D01*
X108273000Y-104026250D01*
X108273000Y-102827000D01*
X108527000Y-102827000D01*
X108527000Y-104026250D01*
X108685750Y-104185000D01*
X109376309Y-104185000D01*
X109609698Y-104088327D01*
X109788327Y-103909699D01*
X109885000Y-103676310D01*
X109885000Y-102985750D01*
X109726250Y-102827000D01*
X108527000Y-102827000D01*
X108273000Y-102827000D01*
X107073750Y-102827000D01*
X106915000Y-102985750D01*
X105481000Y-102985750D01*
X105481000Y-101723690D01*
X106915000Y-101723690D01*
X106915000Y-102414250D01*
X107073750Y-102573000D01*
X108273000Y-102573000D01*
X108273000Y-102553000D01*
X108527000Y-102553000D01*
X108527000Y-102573000D01*
X109726250Y-102573000D01*
X109885000Y-102414250D01*
X109885000Y-101723690D01*
X109788327Y-101490301D01*
X109609698Y-101311673D01*
X109376309Y-101215000D01*
X109036821Y-101215000D01*
X109287501Y-101047501D01*
X109559576Y-100640312D01*
X109655116Y-100160000D01*
X109565603Y-99709989D01*
X109643033Y-99632559D01*
X109643035Y-99632556D01*
X115469592Y-93806000D01*
X131248669Y-93806000D01*
X131042614Y-94114382D01*
X130946018Y-94600001D01*
X131037832Y-95061578D01*
X124337448Y-101761963D01*
X124295194Y-101790196D01*
X124183359Y-101957572D01*
X124154514Y-102102582D01*
X124144087Y-102155002D01*
X124154000Y-102204836D01*
X124154001Y-105261536D01*
X123810000Y-105261536D01*
X123661341Y-105291106D01*
X123535314Y-105375314D01*
X123451106Y-105501341D01*
X123421536Y-105650000D01*
X123421536Y-107350000D01*
X123451106Y-107498659D01*
X123535314Y-107624686D01*
X123661341Y-107708894D01*
X123810000Y-107738464D01*
X125510000Y-107738464D01*
X125658659Y-107708894D01*
X125784686Y-107624686D01*
X125868894Y-107498659D01*
X125898464Y-107350000D01*
X125898464Y-106500000D01*
X125944884Y-106500000D01*
X126040424Y-106980312D01*
X126312499Y-107387501D01*
X126719688Y-107659576D01*
X127078761Y-107731000D01*
X127321239Y-107731000D01*
X127680312Y-107659576D01*
X128087501Y-107387501D01*
X128359576Y-106980312D01*
X128455116Y-106500000D01*
X128359576Y-106019688D01*
X128087501Y-105612499D01*
X127706000Y-105357588D01*
X127706000Y-102364593D01*
X130031566Y-100039027D01*
X130760043Y-100039027D01*
X130932313Y-100454948D01*
X131326511Y-100886822D01*
X131855974Y-101134969D01*
X132088001Y-101014470D01*
X132088001Y-99807001D01*
X130881184Y-99807001D01*
X130760043Y-100039027D01*
X130031566Y-100039027D01*
X130767413Y-99303180D01*
X130760043Y-99320975D01*
X130881184Y-99553001D01*
X132088001Y-99553001D01*
X132088001Y-99533001D01*
X132342001Y-99533001D01*
X132342001Y-99553001D01*
X132362001Y-99553001D01*
X132362001Y-99807001D01*
X132342001Y-99807001D01*
X132342001Y-101014470D01*
X132574028Y-101134969D01*
X133103491Y-100886822D01*
X133497689Y-100454948D01*
X133604166Y-100197875D01*
X133857695Y-100577307D01*
X134269382Y-100852388D01*
X134632420Y-100924601D01*
X134877582Y-100924601D01*
X135240620Y-100852388D01*
X135652307Y-100577307D01*
X135927388Y-100165620D01*
X136023984Y-99680001D01*
X135927388Y-99194382D01*
X135652307Y-98782695D01*
X135240620Y-98507614D01*
X134877582Y-98435401D01*
X134632420Y-98435401D01*
X134269382Y-98507614D01*
X133857695Y-98782695D01*
X133604166Y-99162127D01*
X133497689Y-98905054D01*
X133103491Y-98473180D01*
X132725271Y-98295917D01*
X133112307Y-98037307D01*
X133387388Y-97625620D01*
X133483984Y-97140001D01*
X133486018Y-97140001D01*
X133582614Y-97625620D01*
X133857695Y-98037307D01*
X134269382Y-98312388D01*
X134632420Y-98384601D01*
X134877582Y-98384601D01*
X135240620Y-98312388D01*
X135652307Y-98037307D01*
X135927388Y-97625620D01*
X136023984Y-97140001D01*
X135927388Y-96654382D01*
X135652307Y-96242695D01*
X135240620Y-95967614D01*
X134877582Y-95895401D01*
X134632420Y-95895401D01*
X134269382Y-95967614D01*
X133857695Y-96242695D01*
X133582614Y-96654382D01*
X133486018Y-97140001D01*
X133483984Y-97140001D01*
X133387388Y-96654382D01*
X133112307Y-96242695D01*
X132700620Y-95967614D01*
X132337582Y-95895401D01*
X132092420Y-95895401D01*
X131729382Y-95967614D01*
X131317695Y-96242695D01*
X131042614Y-96654382D01*
X130946018Y-97140001D01*
X131037832Y-97601578D01*
X126877448Y-101761963D01*
X126835194Y-101790196D01*
X126723359Y-101957572D01*
X126694514Y-102102582D01*
X126684087Y-102155002D01*
X126694000Y-102204836D01*
X126694001Y-105357588D01*
X126312499Y-105612499D01*
X126040424Y-106019688D01*
X125944884Y-106500000D01*
X125898464Y-106500000D01*
X125898464Y-105650000D01*
X125868894Y-105501341D01*
X125784686Y-105375314D01*
X125658659Y-105291106D01*
X125510000Y-105261536D01*
X125166000Y-105261536D01*
X125166000Y-102364593D01*
X131753424Y-95777170D01*
X132092420Y-95844601D01*
X132337582Y-95844601D01*
X132700620Y-95772388D01*
X133112307Y-95497307D01*
X133387388Y-95085620D01*
X133483984Y-94600001D01*
X133387388Y-94114382D01*
X133181333Y-93806000D01*
X133245409Y-93806000D01*
X133577832Y-94138423D01*
X133486018Y-94600001D01*
X133582614Y-95085620D01*
X133857695Y-95497307D01*
X134269382Y-95772388D01*
X134632420Y-95844601D01*
X134877582Y-95844601D01*
X135240620Y-95772388D01*
X135652307Y-95497307D01*
X135927388Y-95085620D01*
X136023984Y-94600001D01*
X135927388Y-94114382D01*
X135652307Y-93702695D01*
X135240620Y-93427614D01*
X134877582Y-93355401D01*
X134632420Y-93355401D01*
X134293423Y-93422832D01*
X133848038Y-92977447D01*
X133819806Y-92935194D01*
X133652431Y-92823359D01*
X133504835Y-92794000D01*
X133504834Y-92794000D01*
X133467065Y-92786487D01*
X133467065Y-91196401D01*
X133437495Y-91047742D01*
X133353287Y-90921715D01*
X133227260Y-90837507D01*
X133078601Y-90807937D01*
X131351401Y-90807937D01*
X131202742Y-90837507D01*
X131076715Y-90921715D01*
X130992507Y-91047742D01*
X130962937Y-91196401D01*
X130962937Y-91554001D01*
X114009833Y-91554001D01*
X113959999Y-91544088D01*
X113910165Y-91554001D01*
X113910164Y-91554001D01*
X113762568Y-91583360D01*
X113595193Y-91695195D01*
X113566962Y-91737446D01*
X108850012Y-96454397D01*
X108521239Y-96389000D01*
X108278761Y-96389000D01*
X107919688Y-96460424D01*
X107512499Y-96732499D01*
X107240424Y-97139688D01*
X107144884Y-97620000D01*
X107240424Y-98100312D01*
X107512499Y-98507501D01*
X107919688Y-98779576D01*
X108278761Y-98851000D01*
X108521239Y-98851000D01*
X108880312Y-98779576D01*
X109287501Y-98507501D01*
X109559576Y-98100312D01*
X109655116Y-97620000D01*
X109565603Y-97169988D01*
X114169591Y-92566001D01*
X130962937Y-92566001D01*
X130962937Y-92794000D01*
X115309834Y-92794000D01*
X115260000Y-92784087D01*
X115210166Y-92794000D01*
X115210165Y-92794000D01*
X115062569Y-92823359D01*
X114895194Y-92935194D01*
X114866963Y-92977445D01*
X108927444Y-98916965D01*
X108927441Y-98916967D01*
X108850011Y-98994397D01*
X108521239Y-98929000D01*
X108278761Y-98929000D01*
X107919688Y-99000424D01*
X107512499Y-99272499D01*
X107240424Y-99679688D01*
X107144884Y-100160000D01*
X107240424Y-100640312D01*
X107512499Y-101047501D01*
X107763179Y-101215000D01*
X107423691Y-101215000D01*
X107190302Y-101311673D01*
X107011673Y-101490301D01*
X106915000Y-101723690D01*
X105481000Y-101723690D01*
X105481000Y-95080000D01*
X107144884Y-95080000D01*
X107240424Y-95560312D01*
X107512499Y-95967501D01*
X107919688Y-96239576D01*
X108278761Y-96311000D01*
X108521239Y-96311000D01*
X108880312Y-96239576D01*
X109287501Y-95967501D01*
X109559576Y-95560312D01*
X109655116Y-95080000D01*
X109559576Y-94599688D01*
X109287501Y-94192499D01*
X108880312Y-93920424D01*
X108521239Y-93849000D01*
X108278761Y-93849000D01*
X107919688Y-93920424D01*
X107512499Y-94192499D01*
X107240424Y-94599688D01*
X107144884Y-95080000D01*
X105481000Y-95080000D01*
X105481000Y-92540000D01*
X107144884Y-92540000D01*
X107240424Y-93020312D01*
X107512499Y-93427501D01*
X107919688Y-93699576D01*
X108278761Y-93771000D01*
X108521239Y-93771000D01*
X108880312Y-93699576D01*
X109287501Y-93427501D01*
X109559576Y-93020312D01*
X109655116Y-92540000D01*
X109559576Y-92059688D01*
X109287501Y-91652499D01*
X108880312Y-91380424D01*
X108521239Y-91309000D01*
X108278761Y-91309000D01*
X107919688Y-91380424D01*
X107512499Y-91652499D01*
X107240424Y-92059688D01*
X107144884Y-92540000D01*
X105481000Y-92540000D01*
X105481000Y-90000000D01*
X107144884Y-90000000D01*
X107240424Y-90480312D01*
X107512499Y-90887501D01*
X107919688Y-91159576D01*
X108278761Y-91231000D01*
X108521239Y-91231000D01*
X108880312Y-91159576D01*
X109287501Y-90887501D01*
X109542412Y-90506000D01*
X133706723Y-90506000D01*
X134160853Y-90960131D01*
X133857695Y-91162695D01*
X133582614Y-91574382D01*
X133486018Y-92060001D01*
X133582614Y-92545620D01*
X133857695Y-92957307D01*
X134269382Y-93232388D01*
X134632420Y-93304601D01*
X134877582Y-93304601D01*
X135240620Y-93232388D01*
X135652307Y-92957307D01*
X135927388Y-92545620D01*
X136023984Y-92060001D01*
X135927388Y-91574382D01*
X135652307Y-91162695D01*
X135261001Y-90901232D01*
X135261001Y-90888522D01*
X135270914Y-90838687D01*
X135231642Y-90641256D01*
X135148036Y-90516129D01*
X135119807Y-90473881D01*
X135077559Y-90445652D01*
X134309352Y-89677447D01*
X134281120Y-89635194D01*
X134113745Y-89523359D01*
X133966149Y-89494000D01*
X133966148Y-89494000D01*
X133916314Y-89484087D01*
X133866480Y-89494000D01*
X109542412Y-89494000D01*
X109287501Y-89112499D01*
X108880312Y-88840424D01*
X108521239Y-88769000D01*
X108278761Y-88769000D01*
X107919688Y-88840424D01*
X107512499Y-89112499D01*
X107240424Y-89519688D01*
X107144884Y-90000000D01*
X105481000Y-90000000D01*
X105481000Y-84452627D01*
X105477678Y-84435927D01*
X105505663Y-84295239D01*
X105621651Y-84121651D01*
X105795239Y-84005663D01*
X106044911Y-83956000D01*
X109601324Y-83956000D01*
X109716264Y-84393348D01*
G04 #@! TD*
M02*
