G04 #@! TF.GenerationSoftware,KiCad,Pcbnew,5.0.2-bee76a0~70~ubuntu18.04.1*
G04 #@! TF.CreationDate,2019-08-02T17:52:02+01:00*
G04 #@! TF.ProjectId,UART_plain,55415254-5f70-46c6-9169-6e2e6b696361,rev?*
G04 #@! TF.SameCoordinates,Original*
G04 #@! TF.FileFunction,Soldermask,Bot*
G04 #@! TF.FilePolarity,Negative*
%FSLAX46Y46*%
G04 Gerber Fmt 4.6, Leading zero omitted, Abs format (unit mm)*
G04 Created by KiCad (PCBNEW 5.0.2-bee76a0~70~ubuntu18.04.1) date Fri 02 Aug 2019 17:52:02 BST*
%MOMM*%
%LPD*%
G01*
G04 APERTURE LIST*
%ADD10C,0.100000*%
G04 APERTURE END LIST*
D10*
G36*
X125561000Y-107401000D02*
X123759000Y-107401000D01*
X123759000Y-105599000D01*
X125561000Y-105599000D01*
X125561000Y-107401000D01*
X125561000Y-107401000D01*
G37*
G36*
X127310442Y-105605518D02*
X127376627Y-105612037D01*
X127489853Y-105646384D01*
X127546467Y-105663557D01*
X127685087Y-105737652D01*
X127702991Y-105747222D01*
X127738729Y-105776552D01*
X127840186Y-105859814D01*
X127923448Y-105961271D01*
X127952778Y-105997009D01*
X127952779Y-105997011D01*
X128036443Y-106153533D01*
X128036443Y-106153534D01*
X128087963Y-106323373D01*
X128105359Y-106500000D01*
X128087963Y-106676627D01*
X128053616Y-106789853D01*
X128036443Y-106846467D01*
X127962348Y-106985087D01*
X127952778Y-107002991D01*
X127923448Y-107038729D01*
X127840186Y-107140186D01*
X127738729Y-107223448D01*
X127702991Y-107252778D01*
X127702989Y-107252779D01*
X127546467Y-107336443D01*
X127489853Y-107353616D01*
X127376627Y-107387963D01*
X127310442Y-107394482D01*
X127244260Y-107401000D01*
X127155740Y-107401000D01*
X127089558Y-107394482D01*
X127023373Y-107387963D01*
X126910147Y-107353616D01*
X126853533Y-107336443D01*
X126697011Y-107252779D01*
X126697009Y-107252778D01*
X126661271Y-107223448D01*
X126559814Y-107140186D01*
X126476552Y-107038729D01*
X126447222Y-107002991D01*
X126437652Y-106985087D01*
X126363557Y-106846467D01*
X126346384Y-106789853D01*
X126312037Y-106676627D01*
X126294641Y-106500000D01*
X126312037Y-106323373D01*
X126363557Y-106153534D01*
X126363557Y-106153533D01*
X126447221Y-105997011D01*
X126447222Y-105997009D01*
X126476552Y-105961271D01*
X126559814Y-105859814D01*
X126661271Y-105776552D01*
X126697009Y-105747222D01*
X126714913Y-105737652D01*
X126853533Y-105663557D01*
X126910147Y-105646384D01*
X127023373Y-105612037D01*
X127089557Y-105605519D01*
X127155740Y-105599000D01*
X127244260Y-105599000D01*
X127310442Y-105605518D01*
X127310442Y-105605518D01*
G37*
G36*
X109301000Y-103601000D02*
X107499000Y-103601000D01*
X107499000Y-101799000D01*
X109301000Y-101799000D01*
X109301000Y-103601000D01*
X109301000Y-103601000D01*
G37*
G36*
X108510443Y-99265519D02*
X108576627Y-99272037D01*
X108689853Y-99306384D01*
X108746467Y-99323557D01*
X108755353Y-99328307D01*
X108902991Y-99407222D01*
X108938729Y-99436552D01*
X109040186Y-99519814D01*
X109123448Y-99621271D01*
X109152778Y-99657009D01*
X109152779Y-99657011D01*
X109236443Y-99813533D01*
X109236443Y-99813534D01*
X109287963Y-99983373D01*
X109305359Y-100160000D01*
X109287963Y-100336627D01*
X109255349Y-100444141D01*
X109236443Y-100506467D01*
X109162348Y-100645087D01*
X109152778Y-100662991D01*
X109123448Y-100698729D01*
X109040186Y-100800186D01*
X108938729Y-100883448D01*
X108902991Y-100912778D01*
X108902989Y-100912779D01*
X108746467Y-100996443D01*
X108689853Y-101013616D01*
X108576627Y-101047963D01*
X108510443Y-101054481D01*
X108444260Y-101061000D01*
X108355740Y-101061000D01*
X108289557Y-101054481D01*
X108223373Y-101047963D01*
X108110147Y-101013616D01*
X108053533Y-100996443D01*
X107897011Y-100912779D01*
X107897009Y-100912778D01*
X107861271Y-100883448D01*
X107759814Y-100800186D01*
X107676552Y-100698729D01*
X107647222Y-100662991D01*
X107637652Y-100645087D01*
X107563557Y-100506467D01*
X107544651Y-100444141D01*
X107512037Y-100336627D01*
X107494641Y-100160000D01*
X107512037Y-99983373D01*
X107563557Y-99813534D01*
X107563557Y-99813533D01*
X107647221Y-99657011D01*
X107647222Y-99657009D01*
X107676552Y-99621271D01*
X107759814Y-99519814D01*
X107861271Y-99436552D01*
X107897009Y-99407222D01*
X108044647Y-99328307D01*
X108053533Y-99323557D01*
X108110147Y-99306384D01*
X108223373Y-99272037D01*
X108289557Y-99265519D01*
X108355740Y-99259000D01*
X108444260Y-99259000D01*
X108510443Y-99265519D01*
X108510443Y-99265519D01*
G37*
G36*
X134934295Y-98778634D02*
X135106695Y-98830932D01*
X135106697Y-98830933D01*
X135265584Y-98915860D01*
X135404850Y-99030152D01*
X135519142Y-99169418D01*
X135573993Y-99272037D01*
X135604070Y-99328307D01*
X135656368Y-99500707D01*
X135674026Y-99680001D01*
X135656368Y-99859295D01*
X135604070Y-100031695D01*
X135604069Y-100031697D01*
X135519142Y-100190584D01*
X135404850Y-100329850D01*
X135265584Y-100444142D01*
X135148984Y-100506466D01*
X135106695Y-100529070D01*
X134934295Y-100581368D01*
X134799932Y-100594601D01*
X134710070Y-100594601D01*
X134575707Y-100581368D01*
X134403307Y-100529070D01*
X134361018Y-100506466D01*
X134244418Y-100444142D01*
X134105152Y-100329850D01*
X133990860Y-100190584D01*
X133905933Y-100031697D01*
X133905932Y-100031695D01*
X133853634Y-99859295D01*
X133835976Y-99680001D01*
X133853634Y-99500707D01*
X133905932Y-99328307D01*
X133936009Y-99272037D01*
X133990860Y-99169418D01*
X134105152Y-99030152D01*
X134244418Y-98915860D01*
X134403305Y-98830933D01*
X134403307Y-98830932D01*
X134575707Y-98778634D01*
X134710070Y-98765401D01*
X134799932Y-98765401D01*
X134934295Y-98778634D01*
X134934295Y-98778634D01*
G37*
G36*
X132394295Y-98778634D02*
X132566695Y-98830932D01*
X132566697Y-98830933D01*
X132725584Y-98915860D01*
X132864850Y-99030152D01*
X132979142Y-99169418D01*
X133033993Y-99272037D01*
X133064070Y-99328307D01*
X133116368Y-99500707D01*
X133134026Y-99680001D01*
X133116368Y-99859295D01*
X133064070Y-100031695D01*
X133064069Y-100031697D01*
X132979142Y-100190584D01*
X132864850Y-100329850D01*
X132725584Y-100444142D01*
X132608984Y-100506466D01*
X132566695Y-100529070D01*
X132394295Y-100581368D01*
X132259932Y-100594601D01*
X132170070Y-100594601D01*
X132035707Y-100581368D01*
X131863307Y-100529070D01*
X131821018Y-100506466D01*
X131704418Y-100444142D01*
X131565152Y-100329850D01*
X131450860Y-100190584D01*
X131365933Y-100031697D01*
X131365932Y-100031695D01*
X131313634Y-99859295D01*
X131295976Y-99680001D01*
X131313634Y-99500707D01*
X131365932Y-99328307D01*
X131396009Y-99272037D01*
X131450860Y-99169418D01*
X131565152Y-99030152D01*
X131704418Y-98915860D01*
X131863305Y-98830933D01*
X131863307Y-98830932D01*
X132035707Y-98778634D01*
X132170070Y-98765401D01*
X132259932Y-98765401D01*
X132394295Y-98778634D01*
X132394295Y-98778634D01*
G37*
G36*
X108510442Y-96725518D02*
X108576627Y-96732037D01*
X108689853Y-96766384D01*
X108746467Y-96783557D01*
X108755353Y-96788307D01*
X108902991Y-96867222D01*
X108938729Y-96896552D01*
X109040186Y-96979814D01*
X109123448Y-97081271D01*
X109152778Y-97117009D01*
X109152779Y-97117011D01*
X109236443Y-97273533D01*
X109236443Y-97273534D01*
X109287963Y-97443373D01*
X109305359Y-97620000D01*
X109287963Y-97796627D01*
X109255349Y-97904141D01*
X109236443Y-97966467D01*
X109162348Y-98105087D01*
X109152778Y-98122991D01*
X109123448Y-98158729D01*
X109040186Y-98260186D01*
X108938729Y-98343448D01*
X108902991Y-98372778D01*
X108902989Y-98372779D01*
X108746467Y-98456443D01*
X108689853Y-98473616D01*
X108576627Y-98507963D01*
X108510442Y-98514482D01*
X108444260Y-98521000D01*
X108355740Y-98521000D01*
X108289558Y-98514482D01*
X108223373Y-98507963D01*
X108110147Y-98473616D01*
X108053533Y-98456443D01*
X107897011Y-98372779D01*
X107897009Y-98372778D01*
X107861271Y-98343448D01*
X107759814Y-98260186D01*
X107676552Y-98158729D01*
X107647222Y-98122991D01*
X107637652Y-98105087D01*
X107563557Y-97966467D01*
X107544651Y-97904141D01*
X107512037Y-97796627D01*
X107494641Y-97620000D01*
X107512037Y-97443373D01*
X107563557Y-97273534D01*
X107563557Y-97273533D01*
X107647221Y-97117011D01*
X107647222Y-97117009D01*
X107676552Y-97081271D01*
X107759814Y-96979814D01*
X107861271Y-96896552D01*
X107897009Y-96867222D01*
X108044647Y-96788307D01*
X108053533Y-96783557D01*
X108110147Y-96766384D01*
X108223373Y-96732037D01*
X108289558Y-96725518D01*
X108355740Y-96719000D01*
X108444260Y-96719000D01*
X108510442Y-96725518D01*
X108510442Y-96725518D01*
G37*
G36*
X134934295Y-96238634D02*
X135106695Y-96290932D01*
X135106697Y-96290933D01*
X135265584Y-96375860D01*
X135404850Y-96490152D01*
X135519142Y-96629418D01*
X135573993Y-96732037D01*
X135604070Y-96788307D01*
X135656368Y-96960707D01*
X135674026Y-97140001D01*
X135656368Y-97319295D01*
X135604070Y-97491695D01*
X135604069Y-97491697D01*
X135519142Y-97650584D01*
X135404850Y-97789850D01*
X135265584Y-97904142D01*
X135148984Y-97966466D01*
X135106695Y-97989070D01*
X134934295Y-98041368D01*
X134799932Y-98054601D01*
X134710070Y-98054601D01*
X134575707Y-98041368D01*
X134403307Y-97989070D01*
X134361018Y-97966466D01*
X134244418Y-97904142D01*
X134105152Y-97789850D01*
X133990860Y-97650584D01*
X133905933Y-97491697D01*
X133905932Y-97491695D01*
X133853634Y-97319295D01*
X133835976Y-97140001D01*
X133853634Y-96960707D01*
X133905932Y-96788307D01*
X133936009Y-96732037D01*
X133990860Y-96629418D01*
X134105152Y-96490152D01*
X134244418Y-96375860D01*
X134403305Y-96290933D01*
X134403307Y-96290932D01*
X134575707Y-96238634D01*
X134710070Y-96225401D01*
X134799932Y-96225401D01*
X134934295Y-96238634D01*
X134934295Y-96238634D01*
G37*
G36*
X132394295Y-96238634D02*
X132566695Y-96290932D01*
X132566697Y-96290933D01*
X132725584Y-96375860D01*
X132864850Y-96490152D01*
X132979142Y-96629418D01*
X133033993Y-96732037D01*
X133064070Y-96788307D01*
X133116368Y-96960707D01*
X133134026Y-97140001D01*
X133116368Y-97319295D01*
X133064070Y-97491695D01*
X133064069Y-97491697D01*
X132979142Y-97650584D01*
X132864850Y-97789850D01*
X132725584Y-97904142D01*
X132608984Y-97966466D01*
X132566695Y-97989070D01*
X132394295Y-98041368D01*
X132259932Y-98054601D01*
X132170070Y-98054601D01*
X132035707Y-98041368D01*
X131863307Y-97989070D01*
X131821018Y-97966466D01*
X131704418Y-97904142D01*
X131565152Y-97789850D01*
X131450860Y-97650584D01*
X131365933Y-97491697D01*
X131365932Y-97491695D01*
X131313634Y-97319295D01*
X131295976Y-97140001D01*
X131313634Y-96960707D01*
X131365932Y-96788307D01*
X131396009Y-96732037D01*
X131450860Y-96629418D01*
X131565152Y-96490152D01*
X131704418Y-96375860D01*
X131863305Y-96290933D01*
X131863307Y-96290932D01*
X132035707Y-96238634D01*
X132170070Y-96225401D01*
X132259932Y-96225401D01*
X132394295Y-96238634D01*
X132394295Y-96238634D01*
G37*
G36*
X108510443Y-94185519D02*
X108576627Y-94192037D01*
X108689853Y-94226384D01*
X108746467Y-94243557D01*
X108755353Y-94248307D01*
X108902991Y-94327222D01*
X108938729Y-94356552D01*
X109040186Y-94439814D01*
X109123448Y-94541271D01*
X109152778Y-94577009D01*
X109152779Y-94577011D01*
X109236443Y-94733533D01*
X109236443Y-94733534D01*
X109287963Y-94903373D01*
X109305359Y-95080000D01*
X109287963Y-95256627D01*
X109255349Y-95364141D01*
X109236443Y-95426467D01*
X109162348Y-95565087D01*
X109152778Y-95582991D01*
X109123448Y-95618729D01*
X109040186Y-95720186D01*
X108938729Y-95803448D01*
X108902991Y-95832778D01*
X108902989Y-95832779D01*
X108746467Y-95916443D01*
X108689853Y-95933616D01*
X108576627Y-95967963D01*
X108510443Y-95974481D01*
X108444260Y-95981000D01*
X108355740Y-95981000D01*
X108289558Y-95974482D01*
X108223373Y-95967963D01*
X108110147Y-95933616D01*
X108053533Y-95916443D01*
X107897011Y-95832779D01*
X107897009Y-95832778D01*
X107861271Y-95803448D01*
X107759814Y-95720186D01*
X107676552Y-95618729D01*
X107647222Y-95582991D01*
X107637652Y-95565087D01*
X107563557Y-95426467D01*
X107544651Y-95364141D01*
X107512037Y-95256627D01*
X107494641Y-95080000D01*
X107512037Y-94903373D01*
X107563557Y-94733534D01*
X107563557Y-94733533D01*
X107647221Y-94577011D01*
X107647222Y-94577009D01*
X107676552Y-94541271D01*
X107759814Y-94439814D01*
X107861271Y-94356552D01*
X107897009Y-94327222D01*
X108044647Y-94248307D01*
X108053533Y-94243557D01*
X108110147Y-94226384D01*
X108223373Y-94192037D01*
X108289557Y-94185519D01*
X108355740Y-94179000D01*
X108444260Y-94179000D01*
X108510443Y-94185519D01*
X108510443Y-94185519D01*
G37*
G36*
X132394295Y-93698634D02*
X132566695Y-93750932D01*
X132566697Y-93750933D01*
X132725584Y-93835860D01*
X132864850Y-93950152D01*
X132979142Y-94089418D01*
X133033993Y-94192037D01*
X133064070Y-94248307D01*
X133116368Y-94420707D01*
X133134026Y-94600001D01*
X133116368Y-94779295D01*
X133064070Y-94951695D01*
X133064069Y-94951697D01*
X132979142Y-95110584D01*
X132864850Y-95249850D01*
X132725584Y-95364142D01*
X132608984Y-95426466D01*
X132566695Y-95449070D01*
X132394295Y-95501368D01*
X132259932Y-95514601D01*
X132170070Y-95514601D01*
X132035707Y-95501368D01*
X131863307Y-95449070D01*
X131821018Y-95426466D01*
X131704418Y-95364142D01*
X131565152Y-95249850D01*
X131450860Y-95110584D01*
X131365933Y-94951697D01*
X131365932Y-94951695D01*
X131313634Y-94779295D01*
X131295976Y-94600001D01*
X131313634Y-94420707D01*
X131365932Y-94248307D01*
X131396009Y-94192037D01*
X131450860Y-94089418D01*
X131565152Y-93950152D01*
X131704418Y-93835860D01*
X131863305Y-93750933D01*
X131863307Y-93750932D01*
X132035707Y-93698634D01*
X132170070Y-93685401D01*
X132259932Y-93685401D01*
X132394295Y-93698634D01*
X132394295Y-93698634D01*
G37*
G36*
X134934295Y-93698634D02*
X135106695Y-93750932D01*
X135106697Y-93750933D01*
X135265584Y-93835860D01*
X135404850Y-93950152D01*
X135519142Y-94089418D01*
X135573993Y-94192037D01*
X135604070Y-94248307D01*
X135656368Y-94420707D01*
X135674026Y-94600001D01*
X135656368Y-94779295D01*
X135604070Y-94951695D01*
X135604069Y-94951697D01*
X135519142Y-95110584D01*
X135404850Y-95249850D01*
X135265584Y-95364142D01*
X135148984Y-95426466D01*
X135106695Y-95449070D01*
X134934295Y-95501368D01*
X134799932Y-95514601D01*
X134710070Y-95514601D01*
X134575707Y-95501368D01*
X134403307Y-95449070D01*
X134361018Y-95426466D01*
X134244418Y-95364142D01*
X134105152Y-95249850D01*
X133990860Y-95110584D01*
X133905933Y-94951697D01*
X133905932Y-94951695D01*
X133853634Y-94779295D01*
X133835976Y-94600001D01*
X133853634Y-94420707D01*
X133905932Y-94248307D01*
X133936009Y-94192037D01*
X133990860Y-94089418D01*
X134105152Y-93950152D01*
X134244418Y-93835860D01*
X134403305Y-93750933D01*
X134403307Y-93750932D01*
X134575707Y-93698634D01*
X134710070Y-93685401D01*
X134799932Y-93685401D01*
X134934295Y-93698634D01*
X134934295Y-93698634D01*
G37*
G36*
X108510442Y-91645518D02*
X108576627Y-91652037D01*
X108689853Y-91686384D01*
X108746467Y-91703557D01*
X108755353Y-91708307D01*
X108902991Y-91787222D01*
X108938729Y-91816552D01*
X109040186Y-91899814D01*
X109123448Y-92001271D01*
X109152778Y-92037009D01*
X109152779Y-92037011D01*
X109236443Y-92193533D01*
X109236443Y-92193534D01*
X109287963Y-92363373D01*
X109305359Y-92540000D01*
X109287963Y-92716627D01*
X109255349Y-92824141D01*
X109236443Y-92886467D01*
X109162348Y-93025087D01*
X109152778Y-93042991D01*
X109123448Y-93078729D01*
X109040186Y-93180186D01*
X108938729Y-93263448D01*
X108902991Y-93292778D01*
X108902989Y-93292779D01*
X108746467Y-93376443D01*
X108689853Y-93393616D01*
X108576627Y-93427963D01*
X108510443Y-93434481D01*
X108444260Y-93441000D01*
X108355740Y-93441000D01*
X108289557Y-93434481D01*
X108223373Y-93427963D01*
X108110147Y-93393616D01*
X108053533Y-93376443D01*
X107897011Y-93292779D01*
X107897009Y-93292778D01*
X107861271Y-93263448D01*
X107759814Y-93180186D01*
X107676552Y-93078729D01*
X107647222Y-93042991D01*
X107637652Y-93025087D01*
X107563557Y-92886467D01*
X107544651Y-92824141D01*
X107512037Y-92716627D01*
X107494641Y-92540000D01*
X107512037Y-92363373D01*
X107563557Y-92193534D01*
X107563557Y-92193533D01*
X107647221Y-92037011D01*
X107647222Y-92037009D01*
X107676552Y-92001271D01*
X107759814Y-91899814D01*
X107861271Y-91816552D01*
X107897009Y-91787222D01*
X108044647Y-91708307D01*
X108053533Y-91703557D01*
X108110147Y-91686384D01*
X108223373Y-91652037D01*
X108289558Y-91645518D01*
X108355740Y-91639000D01*
X108444260Y-91639000D01*
X108510442Y-91645518D01*
X108510442Y-91645518D01*
G37*
G36*
X134934295Y-91158634D02*
X135106695Y-91210932D01*
X135106697Y-91210933D01*
X135265584Y-91295860D01*
X135404850Y-91410152D01*
X135519142Y-91549418D01*
X135573993Y-91652037D01*
X135604070Y-91708307D01*
X135656368Y-91880707D01*
X135674026Y-92060001D01*
X135656368Y-92239295D01*
X135604070Y-92411695D01*
X135604069Y-92411697D01*
X135519142Y-92570584D01*
X135404850Y-92709850D01*
X135265584Y-92824142D01*
X135148984Y-92886466D01*
X135106695Y-92909070D01*
X134934295Y-92961368D01*
X134799932Y-92974601D01*
X134710070Y-92974601D01*
X134575707Y-92961368D01*
X134403307Y-92909070D01*
X134361018Y-92886466D01*
X134244418Y-92824142D01*
X134105152Y-92709850D01*
X133990860Y-92570584D01*
X133905933Y-92411697D01*
X133905932Y-92411695D01*
X133853634Y-92239295D01*
X133835976Y-92060001D01*
X133853634Y-91880707D01*
X133905932Y-91708307D01*
X133936009Y-91652037D01*
X133990860Y-91549418D01*
X134105152Y-91410152D01*
X134244418Y-91295860D01*
X134403305Y-91210933D01*
X134403307Y-91210932D01*
X134575707Y-91158634D01*
X134710070Y-91145401D01*
X134799932Y-91145401D01*
X134934295Y-91158634D01*
X134934295Y-91158634D01*
G37*
G36*
X133129601Y-92974601D02*
X131300401Y-92974601D01*
X131300401Y-91145401D01*
X133129601Y-91145401D01*
X133129601Y-92974601D01*
X133129601Y-92974601D01*
G37*
G36*
X108510443Y-89105519D02*
X108576627Y-89112037D01*
X108689853Y-89146384D01*
X108746467Y-89163557D01*
X108885087Y-89237652D01*
X108902991Y-89247222D01*
X108938729Y-89276552D01*
X109040186Y-89359814D01*
X109123448Y-89461271D01*
X109152778Y-89497009D01*
X109152779Y-89497011D01*
X109236443Y-89653533D01*
X109236443Y-89653534D01*
X109287963Y-89823373D01*
X109305359Y-90000000D01*
X109287963Y-90176627D01*
X109253616Y-90289853D01*
X109236443Y-90346467D01*
X109162348Y-90485087D01*
X109152778Y-90502991D01*
X109123448Y-90538729D01*
X109040186Y-90640186D01*
X108938729Y-90723448D01*
X108902991Y-90752778D01*
X108902989Y-90752779D01*
X108746467Y-90836443D01*
X108689853Y-90853616D01*
X108576627Y-90887963D01*
X108510443Y-90894481D01*
X108444260Y-90901000D01*
X108355740Y-90901000D01*
X108289557Y-90894481D01*
X108223373Y-90887963D01*
X108110147Y-90853616D01*
X108053533Y-90836443D01*
X107897011Y-90752779D01*
X107897009Y-90752778D01*
X107861271Y-90723448D01*
X107759814Y-90640186D01*
X107676552Y-90538729D01*
X107647222Y-90502991D01*
X107637652Y-90485087D01*
X107563557Y-90346467D01*
X107546384Y-90289853D01*
X107512037Y-90176627D01*
X107494641Y-90000000D01*
X107512037Y-89823373D01*
X107563557Y-89653534D01*
X107563557Y-89653533D01*
X107647221Y-89497011D01*
X107647222Y-89497009D01*
X107676552Y-89461271D01*
X107759814Y-89359814D01*
X107861271Y-89276552D01*
X107897009Y-89247222D01*
X107914913Y-89237652D01*
X108053533Y-89163557D01*
X108110147Y-89146384D01*
X108223373Y-89112037D01*
X108289557Y-89105519D01*
X108355740Y-89099000D01*
X108444260Y-89099000D01*
X108510443Y-89105519D01*
X108510443Y-89105519D01*
G37*
M02*
